<svg width="106" height="32" viewBox="0 0 106 32" fill="none" xmlns="http://www.w3.org/2000/svg">
<path fill-rule="evenodd" clip-rule="evenodd" d="M17.138 1.17578C22.1032 1.17578 26.5009 3.44781 29.3098 6.95166C28.3735 6.4863 27.3521 6.15782 26.3307 5.93883L25.82 5.85671L25.1674 5.80196H23.3799L22.6706 5.85671C18.3864 6.56842 15.1519 9.47005 13.9886 13.3845C13.7333 14.2605 13.6198 15.1364 13.6198 16.0398C13.6198 17.8464 14.0737 19.6257 15.0384 21.186C16.6556 23.8139 19.4929 25.7027 22.8125 26.1407L23.5218 26.1955H25.2525L25.9619 26.1407C27.1251 25.9491 28.2317 25.5932 29.2531 25.0731C26.3307 28.7139 21.6492 31.0133 16.457 30.7943C8.51271 30.4658 2.07213 24.2519 1.76004 16.5872C1.44794 8.15611 8.45597 1.17578 17.138 1.17578ZM9.30714 25.7848H12.8253V6.43156H5.61871L7.74665 9.93541H9.30714V25.7848Z" fill="white"/>
<path fill-rule="evenodd" clip-rule="evenodd" d="M24.3738 8.97656C28.4027 8.97656 31.6655 12.1246 31.6655 16.0116C31.6655 19.8987 28.4027 23.0467 24.3738 23.0467C20.3449 23.0467 17.082 19.8987 17.082 16.0116C17.082 12.1246 20.3449 8.97656 24.3738 8.97656Z" fill="white"/>
<path d="M39.2411 19.7648V25.9239H35.0703V8.04883H41.596C46.2491 8.04883 48.5757 9.93762 48.5757 13.7426C48.5757 15.5493 47.8947 16.9727 46.5612 18.095C45.2277 19.19 43.4402 19.7648 41.1988 19.7648H39.2411ZM39.2411 11.1421V16.699H40.8867C43.0998 16.699 44.2063 15.7682 44.2063 13.8795C44.2063 12.0454 43.0998 11.1147 40.8867 11.1147H39.2411V11.1421Z" fill="white"/>
<path d="M61.2577 20.6688H52.6324C52.7743 22.5028 53.9659 23.4335 56.2641 23.4335C57.7111 23.4335 58.9879 23.105 60.0944 22.4481V25.2949C58.8744 25.9245 57.2855 26.2256 55.3278 26.2256C53.1999 26.2256 51.5543 25.6508 50.3626 24.5011C49.1993 23.3514 48.6035 21.7637 48.6035 19.738C48.6035 17.6303 49.2277 15.9331 50.5045 14.7013C51.7812 13.4694 53.3417 12.8398 55.186 12.8398C57.1153 12.8398 58.5907 13.3873 59.6688 14.4823C60.7186 15.5772 61.2577 17.0828 61.2577 18.9716V20.6688ZM57.4841 18.2325C57.4841 16.3984 56.7181 15.4951 55.186 15.4951C54.5334 15.4951 53.9659 15.7415 53.4836 16.2889C53.0013 16.809 52.7175 17.466 52.604 18.2325H57.4841Z" fill="white"/>
<path d="M74.1676 25.8971H70.3089V24.0905H70.2522C69.3727 25.5139 68.0391 26.2256 66.3084 26.2256C65.0316 26.2256 64.0102 25.8698 63.2725 25.1854C62.5349 24.4737 62.166 23.543 62.166 22.3659C62.166 19.9023 63.6981 18.4788 66.7056 18.0956L70.3089 17.6302C70.3089 16.2342 69.5145 15.5498 67.954 15.5498C66.3652 15.5498 64.8898 15.9878 63.4712 16.8911V13.9348C64.0386 13.661 64.8047 13.4147 65.7977 13.1957C66.7907 12.9767 67.6703 12.8672 68.4931 12.8672C72.2667 12.8672 74.1392 14.6739 74.1392 18.3146V25.8971H74.1676ZM70.3373 20.7235V19.8749L67.9256 20.176C66.5921 20.3402 65.9396 20.9151 65.9396 21.9005C65.9396 22.3385 66.1098 22.7218 66.4219 22.9955C66.7624 23.2692 67.188 23.4335 67.727 23.4335C68.4931 23.4335 69.1173 23.1871 69.5996 22.667C70.1103 22.1469 70.3373 21.5173 70.3373 20.7235Z" fill="white"/>
<path d="M84.8635 16.6995C84.3812 16.4531 83.7854 16.3162 83.1328 16.3162C82.2533 16.3162 81.5723 16.6173 81.0616 17.2469C80.5509 17.8765 80.3239 18.7251 80.3239 19.7927V25.8697H76.2383V13.1682H80.3239V15.5224H80.3807C81.0332 13.7978 82.1965 12.9219 83.8705 12.9219C84.2961 12.9219 84.6366 12.9766 84.8919 13.0587V16.6995H84.8635Z" fill="white"/>
<path d="M90.2828 21.598C90.2828 22.1455 90.4247 22.5561 90.68 22.8299C90.9354 23.1036 91.3042 23.2405 91.7582 23.2405C91.9852 23.2405 92.2121 23.2131 92.4391 23.1857C92.6661 23.1583 92.8931 23.1036 93.1201 23.0488V25.8136C92.6377 25.9231 92.0987 26.0326 91.5596 26.1147C91.0205 26.1968 90.4531 26.2242 89.8572 26.2242C89.3181 26.2242 88.8358 26.1421 88.3819 25.9778C87.9279 25.8136 87.559 25.5399 87.2469 25.2114C86.9348 24.8829 86.6795 24.4997 86.5093 24.0343C86.339 23.5689 86.2539 23.0488 86.2539 22.474V7.03516H90.3112V21.598H90.2828Z" fill="white"/>
<path d="M94.085 25.5686V22.3933C94.766 22.7765 95.4185 23.0776 96.0995 23.2692C96.752 23.4608 97.4046 23.543 98.0004 23.543C98.7097 23.543 99.3056 23.4608 99.7028 23.2692C100.128 23.0776 100.327 22.7765 100.327 22.3933C100.327 22.1469 100.242 21.9279 100.043 21.7637C99.8447 21.5994 99.6177 21.4625 99.3056 21.3257C99.0218 21.2162 98.6814 21.0793 98.3409 20.9972C98.0004 20.8877 97.66 20.7782 97.3195 20.6687C96.8088 20.4771 96.3264 20.2581 95.9292 20.0665C95.532 19.8475 95.1915 19.6011 94.9078 19.3C94.6525 18.9989 94.4255 18.6704 94.2836 18.2872C94.1418 17.9039 94.0566 17.466 94.0566 16.9185C94.0566 16.2068 94.2269 15.5772 94.539 15.0844C94.8511 14.5643 95.305 14.1537 95.8157 13.8252C96.3548 13.4968 96.979 13.2504 97.66 13.1135C98.3409 12.9493 99.0786 12.8945 99.8163 12.8945C100.412 12.8945 100.98 12.9493 101.604 13.0314C102.2 13.1135 102.795 13.2504 103.391 13.4146V16.4531C102.881 16.152 102.313 15.933 101.746 15.7962C101.15 15.6593 100.582 15.5772 100.015 15.5772C99.7595 15.5772 99.5042 15.6045 99.2772 15.6593C99.0502 15.714 98.8232 15.7688 98.653 15.8509C98.4828 15.933 98.3409 16.0425 98.2274 16.1794C98.1139 16.3163 98.0572 16.4805 98.0572 16.6447C98.0572 16.8637 98.1423 17.0827 98.2842 17.247C98.4544 17.4112 98.653 17.5481 98.88 17.685C99.1353 17.8218 99.4191 17.9039 99.7028 18.0134C100.015 18.1229 100.299 18.2051 100.611 18.3145C101.15 18.5062 101.632 18.6978 102.086 18.9168C102.512 19.1358 102.909 19.3821 103.221 19.6832C103.533 19.9844 103.788 20.3128 103.93 20.6961C104.101 21.0793 104.186 21.5447 104.186 22.0921C104.186 22.8586 104.015 23.4882 103.675 24.0357C103.334 24.5832 102.881 24.9938 102.313 25.3496C101.746 25.6781 101.093 25.9245 100.355 26.0887C99.6177 26.253 98.8516 26.3077 98.0572 26.3077C96.6669 26.2256 95.305 26.0066 94.085 25.5686Z" fill="white"/>
</svg>
