<svg width="99" height="32" viewBox="0 0 99 32" fill="none" xmlns="http://www.w3.org/2000/svg">
<path d="M14.1962 17.3094H14.8007V17.067C14.8007 14.7074 13.2977 13.8832 11.3047 13.8832C8.69079 13.8832 6.30565 15.6125 6.30565 15.6125L4.5903 12.3963C4.5903 12.3963 7.41654 10.166 11.7294 10.166C16.516 10.166 19.2933 12.7842 19.2933 17.3418V28.6064H15.1274V27.1196C15.1274 26.4084 15.1928 25.8428 15.1928 25.8428H15.1274C15.1601 25.8428 13.7388 29.0266 9.58931 29.0266C6.33832 29.0266 3.41406 27.0064 3.41406 23.4024C3.41406 17.6973 11.2393 17.3094 14.1962 17.3094ZM10.7329 25.5357C13.118 25.5357 14.8334 22.9983 14.8334 20.8004V20.3802H14.0492C11.7294 20.3802 7.97198 20.7034 7.97198 23.2084C7.98832 24.4044 8.8705 25.5357 10.7329 25.5357Z" fill="white"/>
<path d="M34.306 14.1743H28.1144V28.6228H23.5728V14.1743H21.3184V10.6026H23.5728V10.0693C23.5728 4.17029 28.4575 3.39453 31.006 3.39453C31.9372 3.39453 32.5416 3.50766 32.5416 3.50766V7.3218C32.5416 7.3218 32.1495 7.25716 31.6104 7.25716C30.3198 7.25716 28.1144 7.58039 28.1144 10.1824V10.6026H38.8476V28.6228H34.306V14.1743Z" fill="white"/>
<path d="M43.3574 10.6024H47.7193V12.6872C47.7193 13.3499 47.654 13.9155 47.654 13.9155H47.7193C48.5035 12.3963 50.4965 10.166 54.1886 10.166C58.2238 10.166 60.5109 12.2509 60.5109 17.0185V28.6064H56.0183V17.9398C56.0183 15.7418 55.4465 14.2711 53.1267 14.2711C50.6926 14.2711 48.9119 15.7903 48.2421 17.9398C47.997 18.6832 47.9153 19.4913 47.9153 20.3478V28.6064H43.3738V10.6024H43.3574Z" fill="white"/>
<path d="M64.7409 10.6016H69.2662V28.6218H64.7246V10.6016H64.7409Z" fill="white"/>
<path d="M66.9631 8.41966C68.4661 8.41966 69.7404 7.17521 69.7404 5.70451C69.7404 4.18531 68.4988 2.95703 66.9631 2.95703C65.4765 2.95703 64.2676 4.18531 64.2676 5.70451C64.2676 7.17521 65.4928 8.41966 66.9631 8.41966Z" fill="#E6284A"/>
<path d="M74.3154 14.4471H71.9629V10.8754H74.4297V5.6875H78.857V10.8754H82.9901V14.4471H78.8406V21.4451C78.8406 24.4188 81.1931 24.839 82.451 24.839C82.9574 24.839 83.2678 24.7744 83.2678 24.7744V28.7016C83.2678 28.7016 82.7287 28.8148 81.8792 28.8148C79.3471 28.8148 74.3154 28.0713 74.3154 22.0269V14.4471Z" fill="white"/>
<path d="M86.2578 10.6016H90.7994V28.6218H86.2578V10.6016Z" fill="white"/>
<path d="M88.4787 8.41966C89.9817 8.41966 91.256 7.17521 91.256 5.70451C91.256 4.18531 90.0144 2.95703 88.4787 2.95703C86.9921 2.95703 85.7832 4.18531 85.7832 5.70451C85.7832 7.17521 87.0248 8.41966 88.4787 8.41966Z" fill="#E6284A"/>
<path d="M93.7881 25.7305C94.6376 25.7305 95.3074 26.4093 95.3074 27.2497C95.3074 28.1062 94.6376 28.785 93.7881 28.785C92.955 28.785 92.2852 28.1062 92.2852 27.2497C92.2852 26.3931 92.955 25.7305 93.7881 25.7305ZM93.7881 28.5588C94.5069 28.5588 95.0624 27.9931 95.0624 27.2497C95.0624 26.5224 94.5069 25.9567 93.7881 25.9567C93.0856 25.9567 92.5465 26.5224 92.5465 27.2497C92.5302 27.9769 93.0693 28.5588 93.7881 28.5588ZM93.2817 26.4254H93.8698C94.1639 26.4254 94.3599 26.6194 94.3599 26.9103C94.3599 27.1527 94.1965 27.2981 94.0495 27.3466V27.3628C94.0495 27.3628 94.0658 27.379 94.0985 27.4598L94.4253 28.0739H94.1639L93.8371 27.4113H93.5104V28.0739H93.2817V26.4254ZM93.8371 27.2173C94.0168 27.2173 94.1312 27.1042 94.1312 26.9103C94.1312 26.7325 94.0168 26.6194 93.8371 26.6194H93.5267V27.2173H93.8371Z" fill="white"/>
</svg>
