<svg width="53" height="32" viewBox="0 0 53 32" fill="none" xmlns="http://www.w3.org/2000/svg">
<g clip-path="url(#clip0_953_1131)">
<path d="M52.0137 18.6672C52.0508 20.4495 51.507 22.0365 50.3456 23.416C50.1232 23.6722 49.8885 23.831 49.5549 23.9042C47.9486 24.2582 46.3423 24.5024 44.6865 24.4902C42.4625 24.478 40.7944 23.3671 39.9542 21.3284C39.633 20.5349 39.4847 19.7048 39.4228 18.8624C39.2746 17.1411 39.1511 15.4199 39.0028 13.6864C38.8421 11.8797 38.6815 10.0729 38.4838 8.27841C38.3108 6.64259 38.1008 5.00675 37.8907 3.37093C37.866 3.12677 37.9155 2.91923 38.0884 2.73612C38.941 1.86937 39.7812 1.00263 40.6214 0.135881C40.6461 0.111466 40.6585 0.0870653 40.6832 0.0748577C40.745 0.0504424 40.8315 -0.0106117 40.8809 0.00159603C40.9303 0.0260114 40.9798 0.123684 40.9798 0.184722C41.0168 0.660821 41.0539 1.14913 41.091 1.63744C41.1898 3.10236 41.301 4.56726 41.3998 6.03218C41.4863 7.28958 41.5729 8.54698 41.6593 9.81653C41.7582 11.2937 41.857 12.7708 41.9682 14.248C42.03 15.0415 42.0794 15.8227 42.1659 16.6162C42.2401 17.3365 42.3636 18.0567 42.6601 18.7281C42.8208 19.0944 43.0309 19.424 43.3274 19.7047C43.661 20.01 44.0688 20.1931 44.5259 20.2175C45.9345 20.2907 47.3307 20.2053 48.7022 19.839C48.8258 19.8025 48.9494 19.7658 49.073 19.7047C49.2706 19.6071 49.3201 19.4972 49.2335 19.3019C49.0853 18.9968 48.9246 18.6916 48.7517 18.3985C48.4427 17.8981 48.1339 17.3853 47.8003 16.8971C47.652 16.6651 47.6396 16.4697 47.8126 16.2378C48.4798 15.2978 49.1347 14.3456 49.8019 13.3935C49.9626 13.1615 50.0614 13.1493 50.2221 13.3812C51.2105 14.7606 51.8406 16.2744 51.9518 17.9835C51.9642 18.1178 51.9766 18.2521 51.9766 18.3863C52.0137 18.4962 52.0137 18.5817 52.0137 18.6672Z" fill="black"/>
<path d="M35.1097 17.4368C35.0849 19.1459 34.7884 20.7939 34.2201 22.4054C34.1706 22.564 34.1335 22.7227 34.0841 22.8814C34.0099 23.1012 33.9482 23.3453 33.837 23.5407C33.0338 24.908 31.9959 26.0676 30.575 26.8367C29.6607 27.325 28.6721 27.5692 27.6466 27.6058C26.7322 27.6424 25.8179 27.6302 24.9283 27.3982C24.4958 27.2884 24.088 27.1175 23.7298 26.8611C23.3714 26.6047 23.285 26.3484 23.4085 25.9212C23.5197 25.5427 23.7544 25.2497 24.0634 25.0177C24.1746 24.9445 24.3475 24.9201 24.4835 24.9323C25.6202 24.9445 26.7199 24.737 27.7702 24.2975C29.2405 23.6749 30.3649 22.6251 31.267 21.3433C31.6994 20.7329 32.033 20.0859 32.3172 19.4022C32.762 18.328 32.7002 17.2659 32.1566 16.2404C31.7241 15.4104 31.131 14.7023 30.4885 14.0431C30.3896 13.9332 30.2784 13.8356 30.1796 13.7257C30.0808 13.6158 30.056 13.4938 30.1301 13.3717C30.7356 12.2241 31.3534 11.0888 31.9588 9.94127C32.0083 9.85584 32.07 9.83141 32.1442 9.86806C32.2183 9.90471 32.3048 9.95349 32.3666 10.0146C33.7011 11.2475 34.4795 12.7735 34.8254 14.5314C34.8996 14.9098 34.9614 15.2883 34.9985 15.6667C35.0355 16.2526 35.0602 16.8508 35.1097 17.4368Z" fill="black"/>
<path d="M8.72987 9.7793C9.31061 10.2554 9.79249 10.7803 10.1879 11.3785C10.9293 12.4772 11.3494 13.698 11.547 14.992C11.9548 17.5922 11.6706 20.1192 10.8181 22.6096C10.089 24.7459 8.14914 26.6747 5.97448 27.3217C4.89951 27.6392 3.79982 27.6514 2.68778 27.5659C2.08233 27.5293 1.48924 27.4072 0.933224 27.1508C0.723172 27.0532 0.525478 26.9433 0.327781 26.809C0.0435932 26.6259 -0.042899 26.3451 0.0188812 26.0155C0.0930173 25.576 0.352488 25.2464 0.698456 24.9901C0.797305 24.9168 0.957933 24.9046 1.09385 24.9046C2.16882 24.9046 3.21908 24.7337 4.23228 24.3431C5.64087 23.7937 6.72819 22.8659 7.63018 21.694C8.12443 21.047 8.55689 20.3633 8.87815 19.6187C9.43417 18.3613 9.37239 17.1283 8.65573 15.9442C8.18621 15.163 7.59311 14.4915 6.96296 13.8445C6.66642 13.5515 6.66642 13.5271 6.86412 13.1608C7.40778 12.1354 7.9638 11.1221 8.50746 10.0967C8.56925 9.99903 8.64338 9.88916 8.72987 9.7793Z" fill="black"/>
<path d="M17.2943 22.9772C17.3067 21.5245 17.1955 20.0718 17.0472 18.6312C16.8619 16.8977 16.6766 15.152 16.4912 13.4186C16.2935 11.5752 16.1328 9.744 16.1452 7.88845C16.1452 7.21704 16.207 6.54562 16.2564 5.8742C16.2688 5.70329 16.3306 5.50795 16.4171 5.36146C16.8124 4.64121 17.2326 3.93317 17.6403 3.21291C17.7886 2.95656 17.9863 2.74903 18.2829 2.65137C18.913 2.44385 19.5185 2.85889 19.5431 3.53031C19.5555 4.03082 19.5308 4.54354 19.4937 5.05627C19.3702 6.77755 19.3084 8.49884 19.469 10.2201C19.6543 12.3198 19.8644 14.4196 20.0374 16.5193C20.1362 17.7645 20.2104 19.0219 20.2227 20.267C20.235 21.6464 20.0374 23.0137 19.7038 24.3443C19.6049 24.7228 19.4566 25.0891 19.2095 25.3942C18.9006 25.7849 18.4929 25.9313 18.011 25.8337C17.6156 25.7605 17.3314 25.4675 17.3067 25.0646C17.282 24.7472 17.3067 24.4299 17.3067 24.1125C17.2943 23.734 17.2943 23.3555 17.2943 22.9772Z" fill="black"/>
<path d="M52.4458 28.0664C52.4087 28.1518 52.384 28.2129 52.347 28.2617C51.7292 29.2627 51.1113 30.2515 50.4936 31.2526C50.3329 31.5089 50.2588 31.5212 50.0117 31.3503C48.949 30.6178 47.8988 29.8732 46.8238 29.1406C46.6879 29.043 46.6632 28.982 46.7497 28.8355C47.1945 28.1641 47.6517 27.4804 48.0718 26.7968C48.2694 26.4916 48.4054 26.162 48.5908 25.8446C48.7144 25.6249 48.7761 25.6127 48.9985 25.7591C50.0858 26.4794 51.1732 27.1875 52.2604 27.9077C52.347 27.9443 52.384 28.0175 52.4458 28.0664Z" fill="black"/>
<path d="M27.7578 4.13775C27.8196 4.01567 27.869 3.89359 27.9432 3.79593C28.561 2.84374 29.1417 1.87934 29.636 0.866103C29.7595 0.609742 29.8336 0.58532 30.0808 0.744019C31.1434 1.40324 32.2184 2.07466 33.281 2.73387C33.5034 2.88037 33.5158 2.94141 33.3798 3.16115C32.7374 4.21101 32.0824 5.27307 31.4399 6.32294C31.2916 6.56709 31.2175 6.5915 31.0075 6.38398C30.1549 5.59047 29.1912 4.94347 28.1656 4.38192C28.0173 4.32088 27.9061 4.2232 27.7578 4.13775Z" fill="black"/>
</g>
<defs>
<clipPath id="clip0_953_1131">
<rect width="53" height="32" fill="white"/>
</clipPath>
</defs>
</svg>
