<svg width="140" height="32" viewBox="0 0 140 32" fill="none" xmlns="http://www.w3.org/2000/svg">
<g clip-path="url(#clip0_953_1116)">
<path d="M37.2186 27.2048C37.2085 24.1109 37.2626 21.0143 37.1811 17.921C37.161 17.2031 36.8728 16.372 36.4163 15.8031C33.7483 12.4767 30.985 9.21975 28.2725 5.92539C26.6979 4.01232 26.8437 2.02726 28.6057 0.74639C30.2867 -0.474461 32.314 -0.104063 33.8848 1.76175C36.2057 4.5189 38.4973 7.29857 40.849 10.1272C43.3391 7.14994 45.7332 4.2463 48.1798 1.3833C49.3517 0.0125682 50.9742 -0.319448 52.4973 0.370152C54.0276 1.06321 54.9157 2.61601 54.4671 4.14266C54.254 4.86754 53.7649 5.55881 53.2644 6.16473C50.6106 9.37703 47.8825 12.5366 45.2587 15.7707C44.7982 16.3374 44.4974 17.1647 44.4783 17.88C44.3935 20.9745 44.4549 24.0698 44.4365 27.1653C44.4239 29.5193 42.9309 31.1554 40.831 31.1688C40.8228 31.1688 40.8145 31.1688 40.8064 31.1688C38.6923 31.1693 37.2266 29.5661 37.2186 27.2048ZM61.2375 31.1152C59.3741 31.0497 57.7946 29.5967 57.7866 27.7557C57.7541 19.6446 57.753 11.533 57.7837 3.42105C57.79 1.54881 59.3186 0.128069 61.2078 0.0650742C63.1424 0.00261622 64.8161 1.37067 64.9045 3.3229C65.0146 5.76919 64.9302 8.22138 64.9302 10.932C68.6058 7.86778 72.0972 4.9567 75.5902 2.04704C76.0569 1.65728 76.5095 1.24797 76.9996 0.884894C78.6524 -0.334645 80.7017 -0.169978 82.0212 1.26864C83.2931 2.65285 83.2244 4.53939 81.691 5.88939C79.4467 7.86481 77.1118 9.74821 74.8153 11.6707C73.3044 12.9355 71.7906 14.1994 70.1549 15.568L80.3831 24.1091C80.7731 24.435 81.1775 24.7456 81.5492 25.0888C83.1994 26.6043 83.3502 28.467 81.9548 29.9313C80.5297 31.4248 78.5647 31.5331 76.8279 30.1041C73.2171 27.1381 69.6501 24.1259 66.0644 21.1329C65.7663 20.8843 65.4634 20.6408 64.9679 20.233C64.9679 22.4297 64.9733 24.3783 64.9645 26.3265C64.9616 26.9154 64.9708 27.5103 64.8836 28.0905C64.6204 29.8189 63.071 31.1171 61.3554 31.1171C61.3162 31.1175 61.2768 31.1169 61.2375 31.1152ZM3.94038 30.6482C1.35033 30.637 0.0140698 29.3718 0.00967518 26.9106C-0.00288078 19.3922 -0.00321601 11.8734 0.00867029 4.35435C0.0111815 1.88106 1.26979 0.608542 3.89474 0.563128C7.32359 0.505319 10.7566 0.498763 14.1854 0.566883C18.099 0.64436 21.0884 2.33222 22.8778 5.6252C24.6812 8.94322 24.2613 12.1765 21.9906 15.2066C21.9039 15.3247 21.84 15.4575 21.7425 15.6247C24.0052 18.5135 24.7382 21.6816 23.1613 25.0351C21.4696 28.636 18.4402 30.567 14.2325 30.6397C12.7882 30.665 11.3432 30.6734 9.89869 30.6734C7.91226 30.6733 5.92655 30.6573 3.94038 30.6482ZM7.04208 19.0067V24.0122C9.70332 24.0122 12.1886 24.0864 14.6669 23.9841C16.0099 23.9275 16.8121 23.0743 16.9503 21.7776C17.0955 20.4008 16.3479 19.1429 14.9551 19.0545C13.8799 18.9862 12.8012 18.9661 11.7171 18.9661C10.1725 18.9659 8.61659 19.0067 7.04208 19.0067ZM7.05081 7.25173V12.2429C9.72566 12.2429 12.2558 12.3119 14.7796 12.216C16.1045 12.1656 16.9458 11.0762 16.9629 9.77299C16.9785 8.46287 16.1734 7.34023 14.8527 7.28361C13.7879 7.23843 12.7212 7.22521 11.6492 7.22521C10.1315 7.22521 8.60279 7.25173 7.05081 7.25173ZM114.06 30.3934C112.052 29.587 111.373 27.7531 112.316 25.604C115.684 17.9478 119.055 10.2924 122.428 2.63801C123.095 1.11232 124.096 -0.0160381 125.964 0.000172459C127.813 0.0144758 128.817 1.10755 129.491 2.65016C132.838 10.314 136.234 17.9601 139.597 25.6176C140.532 27.7453 139.8 29.6323 137.795 30.4046C135.89 31.1397 134.03 30.2782 133.071 28.1943C132.452 26.8457 131.862 25.4838 131.252 24.1298C131.214 24.0427 131.125 23.9761 131.046 23.884H120.727C120.079 25.3441 119.45 26.7951 118.795 28.2334C118.078 29.7976 116.819 30.6679 115.428 30.6679C114.957 30.6648 114.492 30.5712 114.06 30.3934ZM123.734 17.0674H128.184L125.949 12.0346L123.734 17.0674ZM90.019 30.6299C87.5397 30.6197 86.16 29.3154 86.156 26.9701C86.142 19.3545 86.1425 11.7389 86.1575 4.12317C86.1609 1.80734 87.5631 0.468547 90.0322 0.455138C95.0201 0.42828 100.009 0.427822 104.999 0.453767C107.309 0.466223 108.908 1.91069 108.864 3.84301C108.82 5.72777 107.263 7.04159 104.997 7.05136C101.112 7.06752 97.2265 7.05506 93.2322 7.05506V12.1629C93.7744 12.1866 94.3231 12.2305 94.8727 12.2319C96.1011 12.2337 97.3295 12.2334 98.5579 12.231C100.708 12.2281 102.857 12.2258 105.007 12.2429C107.329 12.2623 108.906 13.68 108.863 15.6271C108.82 17.5067 107.262 18.8123 104.981 18.8257C101.655 18.8442 98.3288 18.8307 95.0027 18.8307H93.2266V24.0224H94.8778C98.2546 24.0224 101.634 24.0039 105.011 24.0294C107.315 24.0472 108.91 25.4811 108.862 27.4209C108.817 29.2983 107.25 30.6238 104.986 30.6312C102.459 30.6392 99.9315 30.6433 97.4041 30.6437C94.9424 30.6437 92.4807 30.6391 90.019 30.6299Z" fill="#00AA2F"/>
</g>
<defs>
<clipPath id="clip0_953_1116">
<rect width="140" height="32" fill="white"/>
</clipPath>
</defs>
</svg>
