<svg width="160" height="32" viewBox="0 0 160 32" fill="none" xmlns="http://www.w3.org/2000/svg">
<g clip-path="url(#clip0_953_1138)">
<path d="M127.039 30.9941V10.1874H131.986V12.836C133.234 10.6999 135.952 9.58896 138.404 9.58896C141.256 9.58896 143.752 10.8281 144.911 13.2636C146.605 10.5286 149.145 9.58896 151.953 9.58896C155.875 9.58896 159.619 11.9818 159.619 17.4935V30.9941H154.627V18.3045C154.627 15.8695 153.335 14.0324 150.438 14.0324C147.719 14.0324 145.936 16.0835 145.936 18.6471V30.9941H140.855V18.3045C140.855 15.9122 139.607 14.0324 136.665 14.0324C133.903 14.0324 132.164 15.9976 132.164 18.6471V30.9941H127.039ZM116.875 18.3045C116.786 15.8695 115.093 13.6912 111.527 13.6912C108.273 13.6912 106.401 16.0835 106.224 18.3045H116.875ZM121.823 25.0553C120.664 28.6867 117.232 31.6348 112.017 31.6348C106.134 31.6348 100.92 27.534 100.92 20.4842C100.92 13.9043 106 9.54674 111.482 9.54674C118.167 9.54674 122.09 13.7761 122.09 20.3561C122.09 21.1676 122.001 21.851 121.956 21.9364H106.09C106.224 25.099 108.808 27.3627 112.017 27.3627C115.137 27.3627 116.742 25.7824 117.455 23.7308L121.823 25.0553ZM92.4501 18.3045C92.3609 15.8695 90.6673 13.6912 87.1014 13.6912C83.8479 13.6912 81.976 16.0835 81.7978 18.3045H92.4501ZM97.3972 25.0553C96.2383 28.6867 92.8065 31.6348 87.592 31.6348C81.7087 31.6348 76.4942 27.534 76.4942 20.4842C76.4942 13.9043 81.575 9.54674 87.0568 9.54674C93.7421 9.54674 97.6645 13.7761 97.6645 20.3561C97.6645 21.1676 97.5759 21.851 97.5309 21.9364H81.6642C81.7978 25.099 84.383 27.3627 87.592 27.3627C90.7119 27.3627 92.3164 25.7824 93.0293 23.7308L97.3972 25.0553ZM74.0867 15.1007C73.507 15.0152 72.9278 14.9725 72.3926 14.9725C68.3816 14.9725 66.5544 17.1935 66.5544 21.0822V30.9941H61.384V10.1874H66.4202V13.5194C67.4455 11.2557 69.8525 9.93065 72.705 9.93065C73.3288 9.93065 73.8635 10.0166 74.0867 10.0593V15.1007ZM44.0454 27.2772C47.4326 27.2772 49.7951 24.5005 49.7951 20.4842C49.7951 16.4674 47.4772 13.9043 44.0454 13.9043C40.5691 13.9043 38.1626 16.4674 38.1626 20.4842C38.1626 24.4568 40.4349 27.2772 44.0454 27.2772ZM43.4662 31.5498C37.0928 31.5498 32.9922 26.7215 32.9922 20.4842C32.9922 14.46 37.1373 9.58896 43.3771 9.58896C47.2098 9.58896 49.1708 11.5115 49.7505 12.9214V10.1874H54.7868V27.1918C54.7868 28.9012 54.9645 30.5675 55.009 30.9941H50.0624C49.9733 30.5238 49.8391 29.4138 49.8391 28.0033C48.8589 30.0122 46.5861 31.5498 43.4662 31.5498Z" fill="#3AB54E"/>
<path d="M8.33679 1.66536C10.2086 1.66536 11.7245 3.11851 11.7245 4.91287C11.7245 6.70772 10.2086 8.11719 8.33679 8.11719C6.50952 8.11719 4.99414 6.70772 4.99414 4.91287C4.99414 3.11851 6.50952 1.66536 8.33679 1.66536Z" fill="#3AB54E"/>
<path d="M16.1722 26.7186C11.4367 26.7186 6.9432 23.8196 5.91641 18.3122H0.378906C1.50241 26.7006 8.38871 31.6328 16.1722 31.6328C24.2397 31.6328 29.0527 26.7186 30.4795 21.5913L25.5764 20.0527C24.5065 23.4711 21.4763 26.7186 16.1722 26.7186Z" fill="#3AB54E"/>
<path d="M29.2466 7.11269C27.4928 3.84771 24.261 1.22582 19.5761 0.361402L18.3984 5.08488C21.6413 5.68623 23.7278 7.58931 24.7921 10.0117L29.2466 7.11269Z" fill="#3AB54E"/>
</g>
<defs>
<clipPath id="clip0_953_1138">
<rect width="160" height="32" fill="white"/>
</clipPath>
</defs>
</svg>
