<svg width="40" height="40" viewBox="0 0 40 40" fill="none" xmlns="http://www.w3.org/2000/svg">
<g clip-path="url(#clip0_1053_1131)">
<path d="M32 0H8C3.58172 0 0 3.58172 0 8V32C0 36.4183 3.58172 40 8 40H32C36.4183 40 40 36.4183 40 32V8C40 3.58172 36.4183 0 32 0Z" fill="#F4B941"/>
<path d="M14.4075 13.5975V25.5837C14.4121 25.5888 14.4141 25.5912 14.4163 25.5932C14.4186 25.5954 14.4212 25.5988 14.4236 25.5988C18.3905 25.6008 22.3575 25.6025 26.3244 25.6041C26.346 25.6041 26.3676 25.6014 26.3998 25.5992C26.4014 25.561 26.4042 25.5247 26.4042 25.4884C26.4044 24.5086 26.4045 23.5289 26.4044 22.5491C26.4044 21.0198 26.4039 19.4906 26.403 17.9613C26.401 17.9245 26.407 17.8878 26.4207 17.8536C26.4344 17.8194 26.4554 17.7886 26.4822 17.7634C27.2276 17.0214 27.9713 16.2779 28.7135 15.5328C28.7375 15.5088 28.7625 15.4858 28.7967 15.4531V27.9996H12.0202C12.0007 27.9324 11.9908 11.4578 12.0114 11.2051H24.5477C24.5209 11.2341 24.4992 11.2593 24.4757 11.2828C23.728 12.0312 22.9804 12.7798 22.2332 13.5288C22.2112 13.5523 22.1844 13.5708 22.1545 13.5829C22.1246 13.595 22.0925 13.6004 22.0603 13.5988C19.5526 13.5973 17.0449 13.5969 14.5372 13.5975H14.4075Z" fill="white"/>
<path d="M17.1035 22.9025C17.152 22.7077 17.1965 22.5287 17.2411 22.3498C17.4695 21.4343 17.6975 20.5188 17.9252 19.6032C17.941 19.5397 17.9746 19.4819 18.0221 19.4369C19.971 17.4881 21.9195 15.5389 23.8674 13.5892C24.7017 12.7543 25.5359 11.9195 26.3701 11.0845C26.3878 11.0669 26.4062 11.0499 26.4155 11.041L28.9582 13.5872C28.9531 13.5927 28.935 13.6137 28.9154 13.6333C26.1328 16.4174 23.3504 19.2017 20.5681 21.9861C20.5229 22.0334 20.4652 22.0666 20.4017 22.082C19.3253 22.3492 18.2493 22.6177 17.1736 22.8875C17.156 22.8919 17.1382 22.8951 17.1035 22.9025Z" fill="white"/>
<path d="M29.834 12.7105L27.293 10.1683C27.3031 10.1564 27.3175 10.1375 27.3341 10.1208C27.589 9.86551 27.8454 9.61171 28.0989 9.35515C28.3736 9.06627 28.7374 8.87819 29.1318 8.82111C29.3865 8.77811 29.6476 8.79247 29.8961 8.86307C30.1446 8.93371 30.3742 9.05883 30.5683 9.22939C31.0439 9.63867 31.2484 10.1672 31.1911 10.7898C31.1548 11.1941 30.9768 11.5725 30.6884 11.858C30.4138 12.138 30.1349 12.4136 29.8577 12.691C29.8502 12.6979 29.8422 12.7045 29.834 12.7105Z" fill="white"/>
</g>
<defs>
<clipPath id="clip0_1053_1131">
<rect width="40" height="40" fill="white"/>
</clipPath>
</defs>
</svg>
