<svg width="24" height="24" viewBox="0 0 24 24" fill="none" xmlns="http://www.w3.org/2000/svg">
<path d="M8.29 20.2514C15.837 20.2514 19.965 13.9984 19.965 8.57645C19.965 8.39845 19.965 8.22144 19.953 8.04644C20.7562 7.46497 21.4493 6.74506 22 5.92045C21.2511 6.25245 20.4566 6.47021 19.643 6.56645C20.4996 6.0535 21.1408 5.24679 21.447 4.29645C20.6417 4.77433 19.7607 5.11117 18.842 5.29244C18.2234 4.63421 17.405 4.19828 16.5136 4.05215C15.6222 3.90602 14.7075 4.05784 13.9111 4.48411C13.1147 4.91038 12.4811 5.58732 12.1083 6.41011C11.7355 7.23289 11.6444 8.15563 11.849 9.03544C10.2176 8.95369 8.6216 8.52977 7.16465 7.79121C5.70769 7.05266 4.42233 6.01597 3.392 4.74845C2.86732 5.65165 2.70659 6.72087 2.94254 7.73841C3.17848 8.75595 3.79337 9.64532 4.662 10.2254C4.00926 10.2065 3.37063 10.0309 2.8 9.71345V9.76545C2.80039 10.7127 3.1284 11.6307 3.7284 12.3638C4.3284 13.0969 5.16347 13.5998 6.092 13.7874C5.48781 13.9522 4.85389 13.9761 4.239 13.8574C4.50116 14.6729 5.01168 15.386 5.69913 15.8971C6.38658 16.4081 7.21657 16.6914 8.073 16.7074C7.22212 17.376 6.24779 17.8703 5.20573 18.162C4.16367 18.4537 3.07432 18.5371 2 18.4074C3.8766 19.6118 6.06019 20.2505 8.29 20.2474" fill="#686868"/>
</svg>
