<svg width="37" height="36" viewBox="0 0 37 36" fill="none" xmlns="http://www.w3.org/2000/svg">
<mask id="mask0_953_1445" style="mask-type:luminance" maskUnits="userSpaceOnUse" x="0" y="0" width="37" height="36">
<path d="M36.6665 0H0.666504V36H36.6665V0Z" fill="white"/>
</mask>
<g mask="url(#mask0_953_1445)">
<path d="M5.18056 8.99564V31.4697C5.18925 31.4791 5.1929 31.4837 5.19714 31.4876C5.20137 31.4915 5.20619 31.4979 5.21074 31.4979C12.6488 31.5017 20.0868 31.505 27.5248 31.508C27.5653 31.508 27.6058 31.5028 27.6661 31.4987C27.6691 31.4272 27.6744 31.359 27.6744 31.2909C27.6749 29.4539 27.675 27.6169 27.6748 25.7799C27.6748 22.9125 27.6739 20.0451 27.6721 17.1777C27.6684 17.1087 27.6797 17.0398 27.7054 16.9757C27.731 16.9116 27.7704 16.8539 27.8207 16.8066C29.2182 15.4154 30.6128 14.0213 32.0044 12.6242C32.0493 12.5792 32.0962 12.5362 32.1604 12.4748V35.9996H0.70439C0.667774 35.8736 0.649355 4.98374 0.687939 4.50977H24.1934C24.1432 4.56419 24.1025 4.6115 24.0585 4.65553C22.6564 6.05875 21.2549 7.46246 19.8538 8.86668C19.8125 8.91084 19.7622 8.94546 19.7062 8.96814C19.6502 8.99082 19.59 9.001 19.5296 8.99798C14.8277 8.99518 10.1257 8.9944 5.42376 8.99564H5.18056Z" fill="#08C3A8"/>
<path d="M10.2349 26.4435C10.3258 26.0781 10.4092 25.7426 10.4928 25.4071C10.921 23.6906 11.3486 21.974 11.7756 20.2572C11.8051 20.1381 11.8681 20.0298 11.9572 19.9453C15.6115 16.2915 19.2648 12.6367 22.9172 8.98092C24.4815 7.41562 26.0456 5.85022 27.6097 4.28473C27.6429 4.25155 27.6774 4.21978 27.6948 4.20312C29.2832 5.79372 30.8724 7.38508 32.4623 8.97724C32.4528 8.98755 32.4189 9.02694 32.3822 9.06361C27.1649 14.2839 21.9478 19.5044 16.7309 24.7253C16.6463 24.8138 16.538 24.8761 16.4189 24.905C14.4008 25.406 12.3832 25.9095 10.3662 26.4153C10.3333 26.4235 10.2998 26.4296 10.2349 26.4435Z" fill="#08C3A8"/>
<path d="M34.1046 7.3323C32.5169 5.74385 30.9288 4.15496 29.3403 2.56562C29.3593 2.54349 29.3862 2.50792 29.4175 2.47665C29.8953 1.99798 30.376 1.5221 30.8514 1.04105C31.3893 0.496801 32.0285 0.147835 32.788 0.0397526C33.7968 -0.103801 34.7073 0.139199 35.4814 0.805282C36.3733 1.57266 36.7566 2.56369 36.6492 3.73094C36.5779 4.50577 36.2527 5.17739 35.7067 5.73397C35.1918 6.25878 34.6688 6.7756 34.1491 7.29566C34.135 7.30875 34.1202 7.32099 34.1046 7.3323Z" fill="#08C3A8"/>
</g>
</svg>
