<svg width="40" height="40" viewBox="0 0 40 40" fill="none" xmlns="http://www.w3.org/2000/svg">
<g clip-path="url(#clip0_1053_1140)">
<path d="M32 0H8C3.58172 0 0 3.58172 0 8V32C0 36.4183 3.58172 40 8 40H32C36.4183 40 40 36.4183 40 32V8C40 3.58172 36.4183 0 32 0Z" fill="#4BADEF"/>
<path d="M31.2011 10.6419C31.195 10.69 31.1853 10.738 31.1834 10.7862C31.1467 11.8542 30.9906 12.9146 30.7181 13.9472C30.3875 15.1569 29.8553 16.3009 29.1443 17.3302C28.3492 18.497 27.4071 19.531 26.3588 20.469C25.6616 21.0927 24.9427 21.6901 24.2134 22.2749C24.1871 22.296 24.1615 22.3178 24.1332 22.3412C24.1177 22.6044 24.1016 22.868 24.0869 23.1316C24.0506 23.7836 24.0146 24.4356 23.9791 25.0877C23.9534 25.5588 23.9292 26.0301 23.9037 26.5012C23.8927 26.7048 23.8779 26.9081 23.8685 27.1117C23.8595 27.3042 23.7628 27.4365 23.6004 27.5264C23.2107 27.7424 22.8209 27.9582 22.431 28.174C21.1462 28.8837 19.8615 29.5935 18.5768 30.3034C18.4373 30.3807 18.293 30.4328 18.1382 30.375C18.0512 30.3423 17.971 30.2936 17.9017 30.2313C17.6381 29.9908 17.384 29.7397 17.1211 29.4984C16.9763 29.3656 16.9397 29.2188 17.0007 29.0306C17.3188 28.0492 17.6319 27.066 17.9467 26.0835C18.0041 25.9043 18.0609 25.725 18.1216 25.5344C16.8711 24.3505 15.6183 23.1646 14.3633 21.9765C14.1722 22.0305 13.9821 22.0837 13.7925 22.138C12.7723 22.4302 11.7521 22.7226 10.7321 23.0151C10.6997 23.0244 10.667 23.0325 10.6351 23.0432C10.5629 23.071 10.4843 23.0773 10.4087 23.0612C10.333 23.0452 10.2635 23.0076 10.2085 22.9528C9.92322 22.6858 9.63954 22.4171 9.35746 22.1466C9.32498 22.1154 9.29582 22.0808 9.27054 22.0433C9.22866 21.9893 9.20454 21.9234 9.2015 21.8548C9.19846 21.7863 9.21666 21.7185 9.25354 21.6608C9.30538 21.5734 9.35898 21.4871 9.4123 21.4007C10.3529 19.8764 11.2932 18.3519 12.2331 16.8272C12.2842 16.737 12.3582 16.6622 12.4474 16.6104C12.5367 16.5586 12.638 16.5318 12.7409 16.5326C13.3127 16.5092 13.884 16.4774 14.4556 16.4496C14.9823 16.424 15.5091 16.3998 16.0359 16.3737C16.5701 16.3472 17.1041 16.3177 17.6384 16.2934C17.6732 16.2924 17.7073 16.2838 17.7384 16.268C17.7695 16.2523 17.7968 16.2298 17.8183 16.2022C18.5335 15.3987 19.2621 14.6076 20.0393 13.8647C21.0711 12.8782 22.1785 11.9892 23.4089 11.2633C24.3373 10.7111 25.3426 10.303 26.3912 10.0526C26.9443 9.92241 27.5041 9.82269 28.068 9.75401C28.6662 9.68025 29.2663 9.63417 29.8683 9.61569C29.9087 9.61245 29.9489 9.60705 29.9888 9.59961H30.8419C30.9989 9.66445 31.1268 9.78545 31.2011 9.93949V10.6419ZM25.5817 13.6822C25.5769 13.9027 25.6385 14.1195 25.7583 14.304C25.8719 14.4811 26.0251 14.6289 26.2056 14.7355C26.386 14.8421 26.5887 14.9045 26.7973 14.9177C27.006 14.931 27.2148 14.8946 27.4071 14.8117C27.5993 14.7288 27.7696 14.6015 27.9043 14.4402C28.0701 14.2504 28.1686 14.0104 28.1844 13.758C28.2002 13.5056 28.1324 13.255 27.9916 13.0457C27.6172 12.4856 26.8638 12.2832 26.2744 12.6009C25.8512 12.829 25.5913 13.1779 25.5817 13.6822Z" fill="white"/>
</g>
<defs>
<clipPath id="clip0_1053_1140">
<rect width="40" height="40" fill="white"/>
</clipPath>
</defs>
</svg>
