<svg width="176" height="32" viewBox="0 0 176 32" fill="none" xmlns="http://www.w3.org/2000/svg">
<path d="M41.2665 7.1875H44.3418C44.5479 7.1875 44.7255 7.31473 44.7895 7.51255L49.1366 20.3866L53.4551 7.51255C53.5191 7.32176 53.7039 7.1875 53.9028 7.1875H56.971C57.3048 7.1875 57.5323 7.51254 57.4188 7.82344L51.2816 24.3011C51.2108 24.4847 51.0332 24.6119 50.8343 24.6119H47.3962C47.1972 24.6119 47.0195 24.4919 46.9488 24.3011L40.8116 7.82344C40.7052 7.51254 40.9327 7.1875 41.2665 7.1875Z" fill="#0D2234"/>
<path d="M59.2658 19.327C59.5783 20.7896 60.8638 21.7364 62.6678 21.7364C63.968 21.7364 65.2749 21.4326 66.3405 20.9098C66.653 20.7543 67.0224 20.9803 67.0224 21.3337V23.5947C67.0224 23.7785 66.9084 23.9481 66.738 24.0258C65.6229 24.5416 64.0886 24.8878 62.3838 24.8878C58.5697 24.8878 55.7637 22.1957 55.7637 18.2247C55.7637 14.4868 58.4699 11.5898 62.1777 11.5898C65.8856 11.5898 68.1801 14.3596 68.1801 17.6594C68.1801 18.0551 68.1232 18.5426 68.0519 18.9384C68.0097 19.1644 67.8178 19.327 67.5832 19.327H59.2658ZM59.905 16.6914H64.2377C64.5645 16.6914 64.7919 16.3734 64.6851 16.0626C64.3584 15.1016 63.3854 14.4868 62.1497 14.4868C60.8994 14.4868 59.905 15.137 59.4715 16.0202C59.3224 16.331 59.5569 16.6914 59.905 16.6914Z" fill="#0D2234"/>
<path d="M73.0108 13.4644C73.6856 12.3904 74.7298 11.6343 76.2565 11.599C78.8279 11.5354 80.9164 13.6694 80.9164 16.2271V24.1409C80.9164 24.4023 80.7032 24.6143 80.4406 24.6143H77.862C77.599 24.6143 77.3862 24.4023 77.3862 24.1409V17.3648C77.3862 15.9587 76.5339 15.0047 75.1985 15.0047C73.9125 15.0047 73.0887 15.8526 73.0108 17.2094V24.1409C73.0108 24.4023 72.7976 24.6143 72.535 24.6143H69.9778C69.7147 24.6143 69.502 24.4023 69.502 24.1409V12.3198C69.502 12.0583 69.7147 11.8463 69.9778 11.8463H72.535C72.7976 11.8463 73.0108 12.0583 73.0108 12.3198V13.4644Z" fill="#0D2234"/>
<path d="M83.7826 24.14V14.8202H82.2981C82.035 14.8202 81.8223 14.6082 81.8223 14.3468V12.3189C81.8223 12.0574 82.035 11.8455 82.2981 11.8455H83.9886V7.57063C83.9886 7.35159 84.1449 7.16079 84.3575 7.11133L86.7092 7.12547C87.0288 7.09718 87.2914 7.2809 87.2914 7.58472V11.8455H88.9815C89.2446 11.8455 89.4576 12.0574 89.4576 12.3189V14.3468C89.4576 14.6082 89.2446 14.8202 88.9815 14.8202H87.2914V24.133C87.2914 24.3944 87.0782 24.6064 86.8156 24.6064H84.2584C83.9957 24.6064 83.7826 24.3944 83.7826 24.14Z" fill="#0D2234"/>
<path d="M98.6379 23.0161C97.9911 24.1184 96.8832 24.8886 95.264 24.8886C92.5571 24.8886 90.7812 22.8395 90.7812 20.0979V12.3183C90.7812 12.0569 90.9942 11.845 91.2573 11.845H93.8146C94.0777 11.845 94.2907 12.0569 94.2907 12.3183V19.0946C94.2907 20.5289 95.1144 21.4758 96.4572 21.4758C97.7429 21.4758 98.5666 20.6067 98.6449 19.2712V12.3113C98.6449 12.0499 98.8579 11.8379 99.121 11.8379H101.677C101.941 11.8379 102.153 12.0499 102.153 12.3113V24.1254C102.153 24.3869 101.941 24.5989 101.677 24.5989H99.121C98.8579 24.5989 98.6449 24.3869 98.6449 24.1254V23.0161H98.6379Z" fill="#0D2234"/>
<path d="M107.497 13.2291C108.115 12.2823 109.095 11.5898 110.536 11.5898C110.693 11.5898 110.906 11.597 111.105 11.6111C111.353 11.6322 111.538 11.8371 111.538 12.0844V14.7058C111.538 15.0168 111.24 15.2429 110.942 15.1581C110.573 15.0522 110.147 14.9956 109.656 14.9956C108.42 14.9956 107.568 15.8435 107.489 17.2002V24.1318C107.489 24.3932 107.277 24.6051 107.014 24.6051H104.457C104.193 24.6051 103.98 24.3932 103.98 24.1318V12.3177C103.98 12.0562 104.193 11.8442 104.457 11.8442H107.014C107.277 11.8442 107.489 12.0562 107.489 12.3177V13.2291H107.497Z" fill="#0D2234"/>
<path d="M115.514 19.327C115.827 20.7896 117.112 21.7364 118.916 21.7364C120.216 21.7364 121.523 21.4326 122.588 20.9098C122.901 20.7543 123.27 20.9803 123.27 21.3337V23.5947C123.27 23.7785 123.157 23.9481 122.986 24.0258C121.871 24.5416 120.337 24.8878 118.632 24.8878C114.818 24.8878 112.012 22.1957 112.012 18.2247C112.012 14.4868 114.718 11.5898 118.426 11.5898C122.133 11.5898 124.429 14.3596 124.429 17.6594C124.429 18.0551 124.371 18.5426 124.3 18.9384C124.258 19.1644 124.066 19.327 123.832 19.327H115.514ZM116.153 16.6914H120.486C120.813 16.6914 121.041 16.3734 120.933 16.0626C120.607 15.1016 119.633 14.4868 118.398 14.4868C117.147 14.4868 116.153 15.137 115.72 16.0202C115.57 16.331 115.812 16.6914 116.153 16.6914Z" fill="#0D2234"/>
<path d="M125.758 7.65504C125.758 7.3936 125.971 7.18164 126.234 7.18164H132.25C137.584 7.18164 140.902 10.7923 140.902 15.8938C140.902 20.9954 137.577 24.6061 132.25 24.6061H126.234C125.971 24.6061 125.758 24.3941 125.758 24.1327V7.65504ZM129.416 10.6934V21.0944H132.221C135.389 21.0944 137.116 18.8686 137.116 15.8938C137.116 12.9473 135.389 10.6934 132.221 10.6934H129.416Z" fill="#0D2234"/>
<path d="M143.973 7.1875C145.109 7.1875 145.911 8.05662 145.911 9.13772C145.911 10.2188 145.109 11.0667 143.973 11.0667C142.858 11.0667 142.033 10.2259 142.033 9.13772C142.04 8.04955 142.858 7.1875 143.973 7.1875ZM145.25 24.6119H142.694C142.431 24.6119 142.218 24.4 142.218 24.1385V12.3244C142.218 12.063 142.431 11.851 142.694 11.851H145.25C145.514 11.851 145.727 12.063 145.727 12.3244V24.1385C145.727 24.4 145.514 24.6119 145.25 24.6119Z" fill="#0D2234"/>
<path d="M150.844 12.1637L153.721 20.2753L156.618 12.1566C156.683 11.9658 156.867 11.8457 157.066 11.8457H159.751C160.085 11.8457 160.313 12.1778 160.191 12.4816L155.688 24.3029C155.617 24.4865 155.439 24.6067 155.247 24.6067H152.222C152.023 24.6067 151.845 24.4865 151.781 24.3029L147.299 12.4887C147.186 12.1778 147.413 11.8527 147.739 11.8527H150.403C150.595 11.8527 150.772 11.9729 150.844 12.1637Z" fill="#0D2234"/>
<path d="M163.566 19.327C163.878 20.7896 165.164 21.7364 166.968 21.7364C168.268 21.7364 169.575 21.4326 170.64 20.9098C170.953 20.7543 171.322 20.9803 171.322 21.3337V23.5947C171.322 23.7785 171.209 23.9481 171.038 24.0258C169.923 24.5416 168.388 24.8878 166.685 24.8878C162.87 24.8878 160.064 22.1957 160.064 18.2247C160.064 14.4868 162.77 11.5898 166.478 11.5898C170.186 11.5898 172.48 14.3596 172.48 17.6594C172.48 18.0551 172.423 18.5426 172.353 18.9384C172.31 19.1644 172.118 19.327 171.884 19.327H163.566ZM164.212 16.6914H168.545C168.872 16.6914 169.099 16.3734 168.993 16.0626C168.666 15.1016 167.693 14.4868 166.457 14.4868C165.206 14.4868 164.212 15.137 163.779 16.0202C163.623 16.331 163.864 16.6914 164.212 16.6914Z" fill="#0D2234"/>
<path d="M23.0697 7.16478H16.3319C14.7221 7.16478 13.7155 8.89538 14.5194 10.2809L17.1419 14.8012C17.5415 15.4899 18.2807 15.9142 19.0809 15.9142H22.6067L19.9346 11.3052H23.0697C26.7924 11.4177 27.9527 14.2244 27.9527 15.9142C27.9527 19.2945 25.1745 20.7009 22.9218 20.7009H19.2565C16.6925 20.7009 15.349 19.2533 14.7301 18.1958L8.96101 8.25355C8.57009 7.57989 7.84695 7.16478 7.06422 7.16478H3.51953L10.5565 19.3317C13.3023 24.0913 16.7396 24.7401 19.0619 24.8478H23.1995C28.8353 24.6276 31.9596 20.3796 32.1273 16.4234C32.1273 9.30934 26.0182 7.01789 23.0697 7.16478Z" fill="#EE2737"/>
</svg>
